nColumns=19
nRows=99
DataType=double
version=3
OpenSimVersion=4.1
endheader
time	ground_force_1_vx	ground_force_1_vy	ground_force_1_vz	ground_force_1_px	ground_force_1_py	ground_force_1_pz	ground_force_1_mx	ground_force_1_my	ground_force_1_mz	ground_force_2_vx	ground_force_2_vy	ground_force_2_vz	ground_force_2_px	ground_force_2_py	ground_force_2_pz	ground_force_2_mx	ground_force_2_my	ground_force_2_mz
1.41	-11.8203	54.0097	-0.428949	-0.250887	0	-0.160609	-0	4.22499	-0	0	0	0	-0.00111157	0	0.000172626	0	0	0
1.42	-15.7581	96.4039	-1.19802	0.713226	0	-0.257883	-0	2.8622	-0	0	0	0	-0.00111157	0	0.000172626	0	0	0
1.43	-5.51974	206.144	2.18808	0.764801	0	-0.267565	-0	0.591911	-0	0	0	0	-0.00111157	0	0.000172626	0	0	0
1.44	13.382	392.367	11.9731	0.771442	0	-0.26952	0	-0.759986	0	0	0	0	-0.00111157	0	0.000172626	0	0	0
1.45	16.0661	600.616	21.9803	0.771618	0	-0.269751	0	-1.25772	0	0	0	0	-0.00111157	0	0.000172626	0	0	0
1.46	-10.899	754.636	20.9537	0.770259	0	-0.269392	0	-1.58398	0	0	0	0	-0.00111157	0	0.000172626	0	0	0
1.47	-51.6042	837.929	8.17978	0.767219	0	-0.26864	0	-1.86928	0	0	0	0	-0.00111157	0	0.000172626	0	0	0
1.48	-82.6093	898.124	-9.4455	0.761138	0	-0.267448	0	-1.80572	0	0	0	0	-0.00111157	0	0.000172626	0	0	0
1.49	-94.13	976.737	-23.4573	0.751584	0	-0.26587	0	-1.2405	0	0	0	0	-0.00111157	0	0.000172626	0	0	0
1.5	-93.6564	1074.41	-30.7982	0.739879	0	-0.264175	0	-0.374507	0	0	0	0	-0.00111157	0	0.000172626	0	0	0
1.51	-87.9988	1170.45	-37.1678	0.727751	0	-0.262631	-0	0.473283	-0	0	0	0	-0.00111157	0	0.000172626	0	0	0
1.52	-79.0743	1250.78	-45.2535	0.715932	0	-0.261275	-0	1.1219	-0	0	0	0	-0.00111157	0	0.000172626	0	0	0
1.53	-69.4408	1312.37	-52.1401	0.704257	0	-0.260016	-0	1.55755	-0	0	0	0	-0.00111157	0	0.000172626	0	0	0
1.54	-60.0424	1353.87	-57.8571	0.692355	0	-0.258807	-0	1.80767	-0	0	0	0	-0.00111157	0	0.000172626	0	0	0
1.55	-49.7425	1371.86	-61.9497	0.680033	0	-0.25766	-0	1.83894	-0	0	0	0	-0.00111157	0	0.000172626	0	0	0
1.56	-37.8104	1365.17	-62.7031	0.66734	0	-0.25659	-0	1.57352	-0	0	0	0	-0.00111157	0	0.000172626	0	0	0
1.57	-24.7878	1336.68	-61.096	0.65448	0	-0.255604	-0	0.985947	-0	0	0	0	-0.00111157	0	0.000172626	0	0	0
1.58	-11.0464	1288.85	-58.7736	0.641615	0	-0.254726	-0	0.16853	-0	0	0	0	-0.00111157	0	0.000172626	0	0	0
1.59	3.52294	1224.4	-55.1642	0.628667	0	-0.254015	0	-0.707103	0	0	0	0	-0.00111157	0	0.000172626	0	0	0
1.6	19.191	1148.08	-48.5687	0.615326	0	-0.25356	0	-1.49659	0	0	0	0	-0.00111157	0	0.000172626	0	0	0
1.61	35.9427	1064.25	-38.8289	0.601259	0	-0.253447	0	-2.16036	0	0	0	0	-0.00111157	0	0.000172626	0	0	0
1.62	53.0227	975.171	-27.2491	0.586348	0	-0.253714	0	-2.74981	0	0	0	0	-0.00111157	0	0.000172626	0	0	0
1.63	67.902	882.555	-16.3094	0.5708	0	-0.254297	0	-3.31693	0	0	0	0	-0.00111157	0	0.000172626	0	0	0
1.64	78.4415	788.214	-7.97456	0.555025	0	-0.255025	0	-3.81762	0	0	0	0	-0.00111157	0	0.000172626	0	0	0
1.65	84.7864	693.728	-2.23137	0.539363	0	-0.255641	0	-4.09149	0	0	0	0	-0.00111157	0	0.000172626	0	0	0
1.66	86.9189	600.445	1.04151	0.523867	0	-0.255847	0	-3.95954	0	0	0	0	-0.00111157	0	0.000172626	0	0	0
1.67	84.3907	508.129	1.60885	0.508296	0	-0.255367	0	-3.39281	0	0	0	0	-0.00111157	0	0.000172626	0	0	0
1.68	78.1938	417.672	0.0115192	0.492502	0	-0.25396	0	-2.61915	0	0	0	0	-0.00111157	0	0.000172626	0	0	0
1.69	69.5225	333.62	-1.89213	0.476786	0	-0.251395	0	-2.04175	0	0	0	0	-0.00111157	0	0.000172626	0	0	0
1.7	60.4048	258.931	-1.5017	0.461932	0	-0.247522	0	-1.97608	0	0	0	0	-0.00111157	0	0.000172626	0	0	0
1.71	52.6849	194.107	0.185045	0.450303	0	-0.242643	0	-2.37765	0	0	0	0	-0.00111157	0	0.000172626	0	0	0
1.72	44.8524	140.257	-0.0671084	0.448544	0	-0.238115	0	-2.80063	0	0	0	0	-0.00111157	0	0.000172626	0	0	0
1.73	35.4427	98.9189	-1.23685	0.46574	0	-0.235748	0	-2.74723	0	0	0	0	-0.00111157	0	0.000172626	0	0	0
1.74	25.5563	69.7056	-0.906661	0.496761	0	-0.233351	0	-2.30358	0	0	0	0	-0.00111157	0	0.000172626	0	0	0
1.75	0	0	0	-0.00111157	0	0.000172626	0	0	0	0	0	0	-0.00111157	0	0.000172626	0	0	0
1.76	0	0	0	-0.00111157	0	0.000172626	0	0	0	0	0	0	-0.00111157	0	0.000172626	0	0	0
1.77	0	0	0	-0.00111157	0	0.000172626	0	0	0	0	0	0	-0.00111157	0	0.000172626	0	0	0
1.78	0	0	0	-0.00111157	0	0.000172626	0	0	0	0	0	0	-0.00111157	0	0.000172626	0	0	0
1.79	0	0	0	-0.00111157	0	0.000172626	0	0	0	-13.6962	81.1753	-5.02688	0.701942	0	-0.313719	0	-4.2539	0
1.8	0	0	0	-0.00111157	0	0.000172626	0	0	0	-5.00258	184.663	-7.02966	0.772682	0	-0.344005	0	-1.28351	0
1.81	0	0	0	-0.00111157	0	0.000172626	0	0	0	11.5611	369.2	-5.59377	0.781538	0	-0.346866	0	-0.072374	0
1.82	0	0	0	-0.00111157	0	0.000172626	0	0	0	10.7988	593.242	1.93012	0.783141	0	-0.34751	0	-0.238229	0
1.83	0	0	0	-0.00111157	0	0.000172626	0	0	0	-20.6879	771.945	11.7674	0.782659	0	-0.348443	0	-0.342868	0
1.84	0	0	0	-0.00111157	0	0.000172626	0	0	0	-65.3549	871.554	13.9328	0.779854	0	-0.350088	-0	0.16667	-0
1.85	0	0	0	-0.00111157	0	0.000172626	0	0	0	-99.4547	939.309	11.2116	0.773422	0	-0.352143	-0	0.721762	-0
1.86	0	0	0	-0.00111157	0	0.000172626	0	0	0	-114.401	1027.11	21.1745	0.763076	0	-0.353984	-0	0.604421	-0
1.87	0	0	0	-0.00111157	0	0.000172626	0	0	0	-113.622	1132.82	40.8438	0.750174	0	-0.35536	0	-0.254175	0
1.88	0	0	0	-0.00111157	0	0.000172626	0	0	0	-103.237	1225.8	49.0211	0.736488	0	-0.356541	0	-1.35513	0
1.89	0	0	0	-0.00111157	0	0.000172626	0	0	0	-89.8391	1292.03	46.7132	0.722963	0	-0.35777	0	-2.23456	0
1.9	0	0	0	-0.00111157	0	0.000172626	0	0	0	-77.2974	1337.38	51.6287	0.709703	0	-0.35903	0	-2.81139	0
1.91	0	0	0	-0.00111157	0	0.000172626	0	0	0	-64.5041	1365.91	62.7179	0.696539	0	-0.360243	0	-3.20901	0
1.92	0	0	0	-0.00111157	0	0.000172626	0	0	0	-51.6818	1372.8	66.287	0.683454	0	-0.361403	0	-3.44522	0
1.93	0	0	0	-0.00111157	0	0.000172626	0	0	0	-40.0998	1354.91	62.7183	0.670599	0	-0.362502	0	-3.38971	0
1.94	0	0	0	-0.00111157	0	0.000172626	0	0	0	-28.4793	1315.59	59.4965	0.658079	0	-0.363487	0	-2.93632	0
1.95	0	0	0	-0.00111157	0	0.000172626	0	0	0	-15.7503	1258.37	56.7598	0.6458	0	-0.364305	0	-2.13367	0
1.96	0	0	0	-0.00111157	0	0.000172626	0	0	0	-2.26433	1186.17	51.7766	0.63348	0	-0.364919	0	-1.16955	0
1.97	0	0	0	-0.00111157	0	0.000172626	0	0	0	12.6741	1103.89	44.617	0.620772	0	-0.36525	0	-0.263917	0
1.98	0	0	0	-0.00111157	0	0.000172626	0	0	0	29.9543	1017.52	37.1861	0.60745	0	-0.365151	-0	0.436896	-0
1.99	0	0	0	-0.00111157	0	0.000172626	0	0	0	48.2486	929.007	29.3726	0.593569	0	-0.364487	-0	0.882978	-0
2	0	0	0	-0.00111157	0	0.000172626	0	0	0	63.7958	836.577	19.2326	0.579434	0	-0.363213	-0	1.05351	-0
2.01	0	0	0	-0.00111157	0	0.000172626	0	0	0	74.0925	741.556	8.81662	0.565386	0	-0.361355	-0	0.906897	-0
2.02	0	0	0	-0.00111157	0	0.000172626	0	0	0	80.1039	647.774	3.12591	0.551581	0	-0.359019	-0	0.433557	-0
2.03	0	0	0	-0.00111157	0	0.000172626	0	0	0	83.2192	557.249	2.23066	0.537783	0	-0.356489	0	-0.277336	0
2.04	0	0	0	-0.00111157	0	0.000172626	0	0	0	82.0679	469.375	1.65874	0.523162	0	-0.354246	0	-1.06589	0
2.05	0	0	0	-0.00111157	0	0.000172626	0	0	0	76.1949	384.26	-0.568544	0.506517	0	-0.352737	0	-1.71415	0
2.06	0	0	0	-0.00111157	0	0.000172626	0	0	0	68.5407	305.979	-2.88915	0.487433	0	-0.351947	0	-1.84571	0
2.07	0	0	0	-0.00111157	0	0.000172626	0	0	0	61.286	239.476	-3.37022	0.468192	0	-0.351006	0	-1.09125	0
2.08	0	0	0	-0.00111157	0	0.000172626	0	0	0	54.6583	183.891	-1.11739	0.454849	0	-0.348017	-0	0.026286	-0
2.09	0	0	0	-0.00111157	0	0.000172626	0	0	0	47.2166	136.797	1.42882	0.455453	0	-0.34063	0	-0.630405	0
2.1	0	0	0	-0.00111157	0	0.000172626	0	0	0	37.6869	99.4933	1.43434	0.4718	0	-0.328096	0	-4.96611	0
2.11	0	0	0	-0.00111157	0	0.000172626	0	0	0	26.9363	72.1665	1.03493	0.48692	0	-0.312959	0	-9.82	0
2.12	0	0	0	-0.00111157	0	0.000172626	0	0	0	16.1533	52.9287	2.22295	0.45463	0	-0.297958	0	-5.18874	0
2.13	0	0	0	-0.00111157	0	0.000172626	0	0	0	0	0	0	-0.00111157	0	0.000172626	0	0	0
2.14	0	0	0	-0.00111157	0	0.000172626	0	0	0	0	0	0	-0.00111157	0	0.000172626	0	0	0
2.15	-8.4305	63.3447	0.231294	0.596883	0	-0.212484	-0	46.1322	-0	0	0	0	-0.00111157	0	0.000172626	0	0	0
2.16	-2.15219	137.971	0.505646	0.778834	0	-0.262735	-0	25.1059	-0	0	0	0	-0.00111157	0	0.000172626	0	0	0
2.17	14.2887	292.654	2.15302	0.787955	0	-0.268145	-0	2.2529	-0	0	0	0	-0.00111157	0	0.000172626	0	0	0
2.18	17.4518	509.783	8.20216	0.789003	0	-0.269553	0	-6.1398	0	0	0	0	-0.00111157	0	0.000172626	0	0	0
2.19	-13.597	720.179	16.3832	0.7893	0	-0.270014	0	-3.88779	0	0	0	0	-0.00111157	0	0.000172626	0	0	0
2.2	-64.4331	861.29	19.4528	0.78846	0	-0.270097	0	-0.847451	0	0	0	0	-0.00111157	0	0.000172626	0	0	0
2.21	-105.312	939.417	11.2486	0.784647	0	-0.269837	0	-0.916835	0	0	0	0	-0.00111157	0	0.000172626	0	0	0
2.22	-124.817	1008.82	-5.01905	0.776518	0	-0.269118	0	-2.33519	0	0	0	0	-0.00111157	0	0.000172626	0	0	0
2.23	-128.148	1096.44	-15.9476	0.764587	0	-0.267938	0	-2.85215	0	0	0	0	-0.00111157	0	0.000172626	0	0	0
2.24	-123.293	1185.57	-20.0341	0.75076	0	-0.26654	0	-2.1944	0	0	0	0	-0.00111157	0	0.000172626	0	0	0
2.25	-111.711	1257.14	-28.1703	0.7367	0	-0.265191	0	-1.22185	0	0	0	0	-0.00111157	0	0.000172626	0	0	0
2.26	-97.3935	1310.78	-40.1945	0.723115	0	-0.263952	0	-0.542682	0	0	0	0	-0.00111157	0	0.000172626	0	0	0
2.27	-85.6447	1346.85	-47.7774	0.71004	0	-0.262751	0	-0.178799	0	0	0	0	-0.00111157	0	0.000172626	0	0	0
2.28	-76.0152	1359.85	-51.7518	0.697204	0	-0.261542	-0	0.042527	-0	0	0	0	-0.00111157	0	0.000172626	0	0	0
2.29	-65.3192	1346.98	-54.313	0.684301	0	-0.26034	-0	0.158054	-0	0	0	0	-0.00111157	0	0.000172626	0	0	0
2.3	-52.5099	1313.12	-53.8264	0.671208	0	-0.259189	-0	0.072085	-0	0	0	0	-0.00111157	0	0.000172626	0	0	0
2.31	-37.7312	1263.4	-51.0091	0.658034	0	-0.25814	0	-0.283072	0	0	0	0	-0.00111157	0	0.000172626	0	0	0
2.32	-22.3532	1198.47	-46.7631	0.644915	0	-0.257248	0	-0.856927	0	0	0	0	-0.00111157	0	0.000172626	0	0	0
2.33	-7.64468	1121.14	-40.5746	0.631768	0	-0.25656	0	-1.51877	0	0	0	0	-0.00111157	0	0.000172626	0	0	0
2.34	7.00508	1037.76	-32.4478	0.618279	0	-0.256126	0	-2.14408	0	0	0	0	-0.00111157	0	0.000172626	0	0	0
2.35	22.8138	953.336	-22.7069	0.604166	0	-0.256003	0	-2.66562	0	0	0	0	-0.00111157	0	0.000172626	0	0	0
2.36	38.9195	869.178	-12.2356	0.589464	0	-0.256203	0	-3.0714	0	0	0	0	-0.00111157	0	0.000172626	0	0	0
2.37	52.8908	785.117	-3.14768	0.574538	0	-0.256645	0	-3.37095	0	0	0	0	-0.00111157	0	0.000172626	0	0	0
2.38	62.9319	701.936	2.88054	0.55977	0	-0.257137	0	-3.5505	0	0	0	0	-0.00111157	0	0.000172626	0	0	0
2.39	69.4039	621.134	6.8048	0.545222	0	-0.257418	0	-3.54232	0	0	0	0	-0.00111157	0	0.000172626	0	0	0
